<?xml version="1.0" encoding="utf-8"?>
<!-- Generator: Adobe Illustrator 25.0.1, SVG Export Plug-In . SVG Version: 6.00 Build 0)  -->
<svg version="1.1" id="WildRift_x5F_Favicon_x5F_RGB_xA0_Image_1_"
	 xmlns="http://www.w3.org/2000/svg" xmlns:xlink="http://www.w3.org/1999/xlink" x="0px" y="0px" viewBox="0 0 32 32"
	 style="enable-background:new 0 0 32 32;" xml:space="preserve">
<style type="text/css">
	.st0{clip-path:url(#SVGID_2_);fill:#32C8FF;}
	.st1{clip-path:url(#SVGID_2_);}
	.st2{clip-path:url(#SVGID_4_);fill:#32C8FF;}
</style>
<g>
	<g>
		<defs>
			<rect id="SVGID_1_" x="0.1" y="0" width="31.9" height="31.9"/>
		</defs>
		<clipPath id="SVGID_2_">
			<use xlink:href="#SVGID_1_"  style="overflow:visible;"/>
		</clipPath>
		<polygon class="st0" points="18.6,23.4 20.6,28.3 24,28.3 25.4,23.4 		"/>
		<g class="st1">
			<defs>
				<rect id="SVGID_3_" x="0.1" y="0" width="31.9" height="31.9"/>
			</defs>
			<clipPath id="SVGID_4_">
				<use xlink:href="#SVGID_3_"  style="overflow:visible;"/>
			</clipPath>
			<path class="st2" d="M15.1,18.8c-1.3-3.2-1.9-5.4-1.4-5.7c0.3-0.2,0.8,0.2,1.7,1.9c0,0.1,0.1,0.2,0.2,0.3c0.1,0.1,0.1,0.1,0.1,0
				V3.2H11c-0.2,0-0.2,0-0.1,0.2c1.5,4.5,2.3,7.4,1.9,7.6c-0.4,0.1-1.5-1.4-3.3-5.4c-1-2.3-2.7-5.5-3-5.4c-0.3,0.1,0.7,3.2,4.5,14.4
				c1.3,3.8,2.2,6.3,1.8,6.5c-0.3,0.2-0.8-0.3-2.4-3.7C9,14.7,8.6,14,8.5,14c-0.3,0.1,0.9,3.8,1.7,6.6c0.8,2.9,0.8,3.6,0.3,4.6
				c-0.6,1.2-1.5,3-1.5,3h4.5c-1.2-3-1.6-5-1.3-5.3c0.3-0.4,1.5,1.4,3.1,5.3c1.3,0.8,3.3,2.2,4.4,3.2c0.3,0.3,0.8,0.7,0.5,0
				C19,28.5,17.4,24.6,15.1,18.8"/>
		</g>
	</g>
</g>
</svg>
